# xmcd CD database file
#
# Track frame offsets:
#	150
#	16129
#	27497
#	41790
#	54930
#	72870
#	82361
#	100502
#	118951
#	135327
#	151191
#	167535
#	176809
#	197642
#	215721
#	231912
#	251193
#
# Disc length: 3638 seconds
#
# Revision: 0
# Processed by: cddbd v1.5.2PL0 Copyright (c) Steve Scherf et al.
# Submitted via: CDex 1.95
#
DISCID=ed0e3411
DTITLE=Willie Nelson - All The Songs I've Loved Before  Disc 2
DYEAR=2001
DGENRE=Country
TTITLE0=Willie Nelson - To All The Girls I've Loved Before
TTITLE1=Willie Nelson - Mona Lisa
TTITLE2=Willie Nelson - Far Away Places
TTITLE3=Willie Nelson - The Song From Moulin Rouge
TTITLE4=Willie Nelson - Danny Boy
TTITLE5=Willie Nelson - Because Of You
TTITLE6=Willie Nelson - Tenderly
TTITLE7=Willie Nelson - To Each His Own
TTITLE8=Willie Nelson - Valentine
TTITLE9=Willie Nelson - Let It Be Me
TTITLE10=Willie Nelson - Over The Rainbow
TTITLE11=Willie Nelson - Ac-cent-tchu-ate The Positive
TTITLE12=Willie Nelson - Bridge Over Troubled Water
TTITLE13=Willie Nelson - Help Me Make It Throught The Night
TTITLE14=Willie Nelson - Spanish Eyes
TTITLE15=Willie Nelson - I Can See Clearly Now
TTITLE16=Willie Nelson - City Of New Orleans
EXTD=YEAR: 2001
EXTT0=
EXTT1=
EXTT2=
EXTT3=
EXTT4=
EXTT5=
EXTT6=
EXTT7=
EXTT8=
EXTT9=
EXTT10=
EXTT11=
EXTT12=
EXTT13=
EXTT14=
EXTT15=
EXTT16=
PLAYORDER=
